# xmcd CD database file
#
# Track frame offsets:
#	150
#	23928
#	48281
#	81801
#	100396
#	122471
#	151808
#	166008
#	186491
#	207232
#
# Disc length: 2971 seconds
#
# Revision: 0
# Processed by: cddbd v1.5.2PL0 Copyright (c) Steve Scherf et al.
# Submitted via: CDex 1.51
#
DISCID=770b990a
DTITLE=Gerry Richardson Trio - Mission Statement
DYEAR=1998
DGENRE=Jazz
TTITLE0=Mission Statement
TTITLE1=School of Hard Bops
TTITLE2=African Sunset
TTITLE3=Lady Day and John Coltrane
TTITLE4=See You Later
TTITLE5=Benwell Bohemia
TTITLE6=Barefootin'
TTITLE7=Ska Odyssey
TTITLE8=Our Day Will Come
TTITLE9=Everybody Crying Mercy
EXTD=YEAR: 1998
EXTT0=
EXTT1=
EXTT2=
EXTT3=
EXTT4=
EXTT5=
EXTT6=
EXTT7=
EXTT8=
EXTT9=
PLAYORDER=
